<svg 
 xmlns="http://www.w3.org/2000/svg"
 xmlns:xlink="http://www.w3.org/1999/xlink"
 width="0.375in" height="0.181in">
<path fill-rule="evenodd"  fill="rgb(255, 255, 255)"
 d="M7.158,0.236 C6.840,-0.078 6.323,-0.078 6.005,0.236 L0.237,5.933 L0.062,6.192 L0.002,6.489 L-0.000,6.500 L-0.000,6.509 L0.062,6.808 L0.239,7.070 L6.004,12.764 C6.323,13.078 6.840,13.077 7.158,12.764 C7.475,12.450 7.476,11.939 7.158,11.625 L2.784,7.305 L26.183,7.305 C26.633,7.306 26.999,6.944 26.999,6.500 C26.999,6.057 26.633,5.695 26.183,5.695 L2.784,5.695 L7.158,1.375 C7.476,1.061 7.476,0.550 7.158,0.236 Z"/>
</svg>